<?xml version="1.0" encoding="UTF-8" standalone="no"?>
<svg
   xmlns:dc="http://purl.org/dc/elements/1.1/"
   xmlns:cc="http://creativecommons.org/ns#"
   xmlns:rdf="http://www.w3.org/1999/02/22-rdf-syntax-ns#"
   xmlns:svg="http://www.w3.org/2000/svg"
   xmlns="http://www.w3.org/2000/svg"
   xmlns:sodipodi="http://sodipodi.sourceforge.net/DTD/sodipodi-0.dtd"
   xmlns:inkscape="http://www.inkscape.org/namespaces/inkscape"
   viewBox="0 0 100 15"
   height="15"
   width="100"
   xml:space="preserve"
   version="1.1"
   id="svg2"
   inkscape:version="0.48.4 r9939"
   sodipodi:docname="banco_popular.svg"><title
     id="title3038">Banco Popular (Colombia) logo</title><sodipodi:namedview
     pagecolor="#ffffff"
     bordercolor="#666666"
     borderopacity="1"
     objecttolerance="10"
     gridtolerance="10"
     guidetolerance="10"
     inkscape:pageopacity="0"
     inkscape:pageshadow="2"
     inkscape:window-width="1600"
     inkscape:window-height="844"
     id="namedview61"
     showgrid="false"
     showguides="true"
     inkscape:guide-bbox="true"
     inkscape:showpageshadow="false"
     inkscape:zoom="1"
     inkscape:cx="48.147813"
     inkscape:cy="10.189614"
     inkscape:window-x="-4"
     inkscape:window-y="-4"
     inkscape:window-maximized="1"
     inkscape:current-layer="svg2" /><metadata
     id="metadata8"><rdf:RDF><cc:Work
         rdf:about=""><dc:format>image/svg+xml</dc:format><dc:type
           rdf:resource="http://purl.org/dc/dcmitype/StillImage" /><dc:title>Banco Popular (Colombia) logo</dc:title></cc:Work></rdf:RDF></metadata><defs
     id="defs6" /><g
     transform="matrix(0.13898156,0,0,-0.14479727,0.14385844,25.176522)"
     id="g10"><g
       transform="scale(0.1,0.1)"
       id="g12"><path
         id="path14"
         style="fill:#32a33f;fill-opacity:1;fill-rule:nonzero;stroke:none"
         d="m 7162.52,720.621 -4479.98,0 530,997.019 3949.98,0 0,-997.019"
         inkscape:connector-curvature="0" /><path
         id="path16"
         style="fill:#32a33f;fill-opacity:1;fill-rule:nonzero;stroke:none"
         d="m 2502.54,720.621 -402.54,0 542.54,997.019 420,0 -560,-997.019"
         inkscape:connector-curvature="0" /><path
         id="path18"
         style="fill:#32a33f;fill-opacity:1;fill-rule:nonzero;stroke:none"
         d="m 1801.86,720.621 -291.86,0 563.73,997.019 288.13,0 -560,-997.019"
         inkscape:connector-curvature="0" /><path
         id="path20"
         style="fill:#32a33f;fill-opacity:1;fill-rule:nonzero;stroke:none"
         d="m 933.73,1717.64 -228.164,-403.55 -220.371,0 226.66,403.55 -148.125,0 L 0,720.621 l 151.855,0 247.149,440.019 219.785,0 L 370,720.621 l 751.86,0 560,997.019 -748.13,0"
         inkscape:connector-curvature="0" /><path
         id="path22"
         style="fill:#ffffff;fill-opacity:1;fill-rule:nonzero;stroke:none"
         d="m 4577.33,1292.45 96.91,0 c 0,0 174.22,133.96 128.54,232.29 0,0 -49.06,101.64 -225.45,25.99 0,0 -155.24,-67.11 -146.11,-258.28 l 81.5,0 c 0,0 -19.73,165.56 113.05,207.03 0,0 50.8,20.13 77.28,-14.06 0,0 47.91,-63.62 -125.72,-192.97"
         inkscape:connector-curvature="0" /><path
         id="path24"
         style="fill:#ffffff;fill-opacity:1;fill-rule:nonzero;stroke:none"
         d="m 5023.97,1402.72 c -21.35,-15.81 -48.11,-26.22 -71.58,-26.22 -37.46,0 -52.46,26.45 -33.52,59.07 18.97,32.64 64.69,59.09 102.13,59.09 20.88,0 34.75,-8.23 39.69,-21.15 l 99.04,0 c 14.32,57.2 -21.76,99.07 -93.48,99.07 -86.83,0 -192.87,-61.33 -236.81,-137.01 -43.95,-75.66 -9.16,-136.99 77.69,-136.99 73.83,0 161.37,44.38 212.99,104.14 l -96.15,0"
         inkscape:connector-curvature="0" /><path
         id="path26"
         style="fill:#ffffff;fill-opacity:1;fill-rule:nonzero;stroke:none"
         d="m 5002.17,1260.36 -235.08,-423.11 106.37,0 240,423.11 -111.29,0"
         inkscape:connector-curvature="0" /><path
         id="path28"
         style="fill:#ffffff;fill-opacity:1;fill-rule:nonzero;stroke:none"
         d="m 5569.2,1108.77 c 0,0 -195.95,27.25 -310.95,-271.52 l 80.21,0 c 12.95,38.535 32.07,76.258 54.24,110.352 21.15,32.527 47.44,65.458 83.54,82.308 16.75,7.82 34.96,12.56 53.24,15.06 4.04,0.56 29.72,2.85 29.72,3.71 l 10,60.09"
         inkscape:connector-curvature="0" /><path
         id="path30"
         style="fill:#ffffff;fill-opacity:1;fill-rule:nonzero;stroke:none"
         d="m 4604.17,1106.4 97.08,0 c 0,0 -194.78,-183.935 -88.16,-202.998 0,0 157.75,-40.05 158.36,202.998 l 83.98,0 c 0,0 6.66,-257.744 -227.44,-269.15 0,0 -131.97,-7.246 -137.46,68.41 0,0 -10.27,92.332 113.64,200.74"
         inkscape:connector-curvature="0" /><path
         id="path32"
         style="fill:#ffffff;fill-opacity:1;fill-rule:nonzero;stroke:none"
         d="m 3958.87,1435.58 c -20.54,-38.06 -70.15,-68.91 -110.8,-68.91 -40.64,0 -56.91,30.85 -36.35,68.91 20.55,38.06 70.18,68.92 110.8,68.92 40.65,0 56.92,-30.86 36.35,-68.92 z m 5.98,147.26 c -28.26,0 -58.56,-7.07 -88.11,-19.31 l 84.44,154.11 -88.19,0 -144.94,-282.06 c -43.94,-81.33 -9.18,-147.26 77.68,-147.26 86.85,0 192.89,65.93 236.81,147.26 43.95,81.34 9.16,147.26 -77.69,147.26"
         inkscape:connector-curvature="0" /><path
         id="path34"
         style="fill:#ffffff;fill-opacity:1;fill-rule:nonzero;stroke:none"
         d="m 4313.66,1423.86 c -20.57,-38.06 -70.18,-68.91 -110.82,-68.91 -40.65,0 -56.92,30.85 -36.35,68.91 20.57,38.07 70.18,68.92 110.8,68.92 40.64,0 56.91,-30.85 36.37,-68.92 z m 8.88,148.72 c -86.83,0 -186.89,-56.36 -230.84,-137.69 -43.94,-81.33 -9.18,-147.26 77.68,-147.26 27.32,0 56.54,6.54 85.14,18.02 l -5.57,-13.89 80.45,0 c 0,0 71.93,118.02 89.77,173.21 0.01,0.07 0.01,0.1 0.01,0.17 21.22,66.82 -20.85,107.44 -96.64,107.44"
         inkscape:connector-curvature="0" /><path
         id="path36"
         style="fill:#ffffff;fill-opacity:1;fill-rule:nonzero;stroke:none"
         d="m 5441.65,1435.57 c -22.29,-38.39 -76.12,-69.52 -120.2,-69.52 -44.08,0 -61.72,31.13 -39.41,69.52 22.3,38.41 76.11,69.54 120.17,69.54 44.08,0 61.74,-31.13 39.44,-69.54 z m -0.26,137.01 c -86.83,0 -192.85,-61.33 -236.8,-137.01 -43.94,-75.66 -9.17,-136.99 77.68,-136.99 86.86,0 192.89,61.33 236.82,136.99 43.94,75.68 9.16,137.01 -77.7,137.01"
         inkscape:connector-curvature="0" /><path
         id="path38"
         style="fill:#ffffff;fill-opacity:1;fill-rule:nonzero;stroke:none"
         d="m 5201,972.309 c -20.57,-38.059 -70.17,-68.907 -110.82,-68.907 -40.64,0 -56.91,30.848 -36.35,68.907 20.57,38.071 70.18,68.911 110.8,68.911 40.65,0 56.92,-30.84 36.37,-68.911 z m 8.89,148.721 c -86.84,0 -186.9,-56.36 -230.84,-137.698 -43.95,-81.328 -9.18,-147.254 77.67,-147.254 27.33,0 56.55,6.543 85.14,18.016 l -5.57,-13.887 80.45,0 c 0,0 71.94,118.02 89.77,173.213 0.02,0.06 0.02,0.1 0.02,0.17 21.21,66.81 -20.86,107.44 -96.64,107.44"
         inkscape:connector-curvature="0" /><path
         id="path40"
         style="fill:#ffffff;fill-opacity:1;fill-rule:nonzero;stroke:none"
         d="m 3694.07,971.762 c -22.29,-38.391 -76.12,-69.524 -120.2,-69.524 -44.08,0 -61.72,31.133 -39.41,69.524 22.3,38.408 76.11,69.538 120.17,69.538 44.09,0 61.74,-31.13 39.44,-69.538 z m -0.26,137.008 c -85.25,0 -188.86,-59.17 -234.2,-132.946 l -0.07,0.129 -152.73,-255.332 86.27,0 76.77,130.406 c 16.11,-10.359 37.97,-16.257 64.84,-16.257 86.86,0 192.89,61.335 236.82,136.992 43.94,75.668 9.16,137.008 -77.7,137.008"
         inkscape:connector-curvature="0" /><path
         id="path42"
         style="fill:#ffffff;fill-opacity:1;fill-rule:nonzero;stroke:none"
         d="m 4027.84,961.508 c -20.55,-38.055 -70.16,-68.906 -110.8,-68.906 -40.65,0 -56.92,30.851 -36.35,68.906 20.55,38.066 70.17,68.912 110.8,68.912 40.64,0 56.91,-30.846 36.35,-68.912 z m 5.97,147.262 c -86.83,0 -192.85,-65.93 -236.79,-147.262 -43.95,-81.328 -9.18,-147.258 77.67,-147.258 86.86,0 192.89,65.93 236.82,147.258 43.94,81.332 9.16,147.262 -77.7,147.262"
         inkscape:connector-curvature="0" /><path
         id="path44"
         style="fill:#ffffff;fill-opacity:1;fill-rule:nonzero;stroke:none"
         d="m 4394.07,971.762 c -22.29,-38.391 -76.12,-69.524 -120.2,-69.524 -44.08,0 -61.72,31.133 -39.41,69.524 22.3,38.408 76.11,69.538 120.17,69.538 44.09,0 61.74,-31.13 39.44,-69.538 z m -0.26,137.008 c -85.25,0 -188.86,-59.17 -234.2,-132.946 l -0.07,0.129 -152.74,-255.332 86.27,0 76.78,130.406 c 16.11,-10.359 37.97,-16.257 64.84,-16.257 86.86,0 192.89,61.335 236.82,136.992 43.94,75.668 9.16,137.008 -77.7,137.008"
         inkscape:connector-curvature="0" /><path
         id="path46"
         style="fill:#ffffff;fill-opacity:1;fill-rule:nonzero;stroke:none"
         d="m 1108.65,1592.04 c -79.14,15.12 -169.072,6.81 -257.334,-19.32 l 82.414,144.92 -221.875,0 -243.167,-419.82 c -0.071,-0.12 -0.153,-0.23 -0.219,-0.35 -0.852,-1.39 -1.582,-2.8 -2.414,-4.2 l 226.347,0 c 72.664,74.73 185.379,128.16 275.125,111 67.743,-12.94 100.953,-56.76 101.403,-111 l 255.11,0 c 26.12,141.49 -52.42,267.62 -215.39,298.77"
         inkscape:connector-curvature="0" /><path
         id="path48"
         style="fill:#ffffff;fill-opacity:1;fill-rule:nonzero;stroke:none"
         d="m 708.828,1030.47 c -77.488,14.81 -106.527,59.07 -96.387,118.95 l 6.348,11.22 -219.785,0 -247.149,-440.019 218.145,0 114.023,201.668 c 36.551,-33.984 86.04,-58.801 147.832,-70.605 218.583,-41.77 496.975,107.226 628.145,294.536 3.36,4.79 6.49,9.6 9.6,14.42 l -255.85,0 C 942.188,1074.85 812.363,1010.69 708.828,1030.47"
         inkscape:connector-curvature="0" /></g></g></svg>