<?xml version="1.0" encoding="UTF-8" standalone="no"?>
<!-- Created with sK1/UniConvertor (http://sk1project.org/) -->

<svg
   xmlns:dc="http://purl.org/dc/elements/1.1/"
   xmlns:cc="http://creativecommons.org/ns#"
   xmlns:rdf="http://www.w3.org/1999/02/22-rdf-syntax-ns#"
   xmlns:svg="http://www.w3.org/2000/svg"
   xmlns="http://www.w3.org/2000/svg"
   xmlns:sodipodi="http://sodipodi.sourceforge.net/DTD/sodipodi-0.dtd"
   xmlns:inkscape="http://www.inkscape.org/namespaces/inkscape"
   width="150"
   height="34"
   viewBox="0 0 120.00001 27.199998"
   id="svg2"
   version="1.1"
   inkscape:version="0.48.4 r9939"
   sodipodi:docname="banco_caja_social.svg"
   style="fill-rule:evenodd">
  <title
     id="title3005">Banco Caja Social logo</title>
  <metadata
     id="metadata60">
    <rdf:RDF>
      <cc:Work
         rdf:about="">
        <dc:format>image/svg+xml</dc:format>
        <dc:type
           rdf:resource="http://purl.org/dc/dcmitype/StillImage" />
        <dc:title>Banco Caja Social logo</dc:title>
      </cc:Work>
    </rdf:RDF>
  </metadata>
  <defs
     id="defs58" />
  <sodipodi:namedview
     pagecolor="#ffffff"
     bordercolor="#666666"
     borderopacity="1"
     objecttolerance="10"
     gridtolerance="10"
     guidetolerance="10"
     inkscape:pageopacity="0"
     inkscape:pageshadow="2"
     inkscape:window-width="1600"
     inkscape:window-height="844"
     id="namedview56"
     showgrid="false"
     inkscape:zoom="1"
     inkscape:cx="90.445231"
     inkscape:cy="18.95149"
     inkscape:window-x="-4"
     inkscape:window-y="-4"
     inkscape:window-maximized="1"
     inkscape:current-layer="svg2"
     inkscape:showpageshadow="false" />
  <g
     id="g4"
     transform="matrix(0.23245164,0,0,0.23245972,-10.05801,-89.981062)">
    <g
       id="g6">
      <g
         id="g8">
        <g
           id="g12">
          <path
             style="fill:#e12233;stroke:none"
             d="m 113.589,393.241 c 3.522,0 6.378,4.584 6.378,10.236 0,5.653 -2.856,10.237 -6.378,10.237 -3.522,0 -6.378,-4.584 -6.378,-10.237 0,-5.652 2.856,-10.236 6.378,-10.236 z m -34.0567,18.593 c 2.4959,-2.495 7.0045,-2.035 10.0684,1.03 3.0639,3.063 3.5248,7.572 1.0291,10.068 -2.496,2.496 -7.0048,2.035 -10.0684,-1.029 -3.0642,-3.064 -3.5249,-7.573 -1.0291,-10.069 z m 0,68.114 c -2.4957,-2.496 -2.0351,-7.004 1.0291,-10.068 3.0636,-3.064 7.5724,-3.525 10.0684,-1.029 2.4957,2.496 2.0348,7.004 -1.0291,10.068 -3.0639,3.064 -7.5725,3.525 -10.0684,1.029 z m 68.1137,0 c -2.496,2.496 -7.005,2.035 -10.069,-1.029 -3.063,-3.064 -3.524,-7.572 -1.029,-10.068 2.496,-2.496 7.005,-2.035 10.069,1.029 3.064,3.064 3.525,7.572 1.029,10.068 z M 60.9386,445.891 c 0,-3.522 4.584,-6.378 10.2367,-6.378 5.6525,0 10.2367,2.856 10.2367,6.378 0,3.522 -4.5842,6.378 -10.2367,6.378 -5.6527,0 -10.2367,-2.856 -10.2367,-6.378 z m 52.6504,52.651 c -3.522,0 -6.378,-4.584 -6.378,-10.237 0,-5.653 2.856,-10.237 6.378,-10.237 3.522,0 6.378,4.584 6.378,10.237 0,5.653 -2.856,10.237 -6.378,10.237 z m 52.651,-52.651 c 0,3.522 -4.584,6.378 -10.237,6.378 -5.653,0 -10.237,-2.856 -10.237,-6.378 0,-3.522 4.584,-6.378 10.237,-6.378 5.653,0 10.237,2.856 10.237,6.378 z m -18.594,-34.057 c 2.496,2.496 2.035,7.005 -1.029,10.069 -3.064,3.064 -7.573,3.525 -10.069,1.029 -2.495,-2.496 -2.034,-7.005 1.029,-10.068 3.064,-3.065 7.573,-3.525 10.069,-1.03 z"
             id="path14"
             inkscape:connector-curvature="0" />
          <path
             style="fill:#e12233;stroke:none"
             d="m 113.589,423.285 c 1.668,0 3.02,1.584 3.02,3.536 0,1.952 -1.352,3.535 -3.02,3.535 -1.668,0 -3.02,-1.583 -3.02,-3.535 0,-1.952 1.352,-3.536 3.02,-3.536 z m -15.9847,6.621 c 1.1794,-1.179 3.2557,-1.016 4.6357,0.365 1.38,1.38 1.543,3.456 0.364,4.635 -1.179,1.18 -3.255,1.017 -4.6354,-0.364 -1.3805,-1.38 -1.5435,-3.456 -0.3643,-4.636 z m 0,31.97 c -1.1792,-1.179 -1.0162,-3.255 0.3643,-4.636 1.3804,-1.38 3.4564,-1.543 4.6354,-0.364 1.179,1.18 1.016,3.255 -0.364,4.636 -1.38,1.38 -3.4563,1.543 -4.6357,0.364 z m 31.9697,0 c -1.18,1.179 -3.255,1.016 -4.636,-0.364 -1.38,-1.381 -1.543,-3.456 -0.364,-4.636 1.179,-1.179 3.255,-1.016 4.636,0.364 1.38,1.381 1.543,3.457 0.364,4.636 z M 90.9833,445.891 c 0,-1.668 1.5831,-3.02 3.5353,-3.02 1.9523,0 3.5353,1.352 3.5354,3.02 -1e-4,1.668 -1.5831,3.021 -3.5354,3.02 -1.9522,10e-4 -3.5353,-1.352 -3.5353,-3.02 z m 22.6057,22.606 c -1.668,0 -3.02,-1.583 -3.02,-3.535 0,-1.953 1.352,-3.536 3.02,-3.536 1.668,0 3.02,1.583 3.02,3.536 0,1.952 -1.352,3.535 -3.02,3.535 z m 22.606,-22.606 c 0,1.668 -1.583,3.021 -3.535,3.02 -1.953,10e-4 -3.536,-1.352 -3.536,-3.02 0,-1.668 1.583,-3.02 3.536,-3.02 1.952,0 3.535,1.352 3.535,3.02 z m -6.621,-15.985 c 1.179,1.18 1.016,3.256 -0.364,4.636 -1.381,1.381 -3.457,1.544 -4.636,0.364 -1.179,-1.179 -1.016,-3.255 0.364,-4.635 1.381,-1.381 3.456,-1.544 4.636,-0.365 z"
             id="path16"
             inkscape:connector-curvature="0" />
          <g
             id="g18">
            <path
               style="fill:#0090cd;stroke:none"
               d="m 99.6777,412.306 c 2.2303,-0.924 5.0563,0.776 6.3063,3.795 1.251,3.019 0.455,6.219 -1.776,7.143 -2.23,0.924 -5.0557,-0.776 -6.3061,-3.795 -1.2504,-3.019 -0.4548,-6.219 1.7758,-7.143 z"
               id="path20"
               inkscape:connector-curvature="0" />
            <path
               style="fill:#0090cd;stroke:none"
               d="m 80.004,431.98 c 0.924,-2.231 4.1243,-3.026 7.143,-1.776 3.0188,1.25 4.7191,4.076 3.7951,6.307 -0.9239,2.23 -4.1242,3.026 -7.143,1.775 -3.0187,-1.25 -4.719,-4.076 -3.7951,-6.306 z"
               id="path22"
               inkscape:connector-curvature="0" />
            <path
               style="fill:#0090cd;stroke:none"
               d="m 80.0041,459.803 c -0.924,-2.231 0.7764,-5.057 3.7951,-6.307 3.0188,-1.25 6.219,-0.455 7.143,1.776 0.924,2.231 -0.7764,5.056 -3.7951,6.306 -3.0188,1.251 -6.219,0.455 -7.143,-1.775 z"
               id="path24"
               inkscape:connector-curvature="0" />
            <path
               style="fill:#0090cd;stroke:none"
               d="m 99.6778,479.476 c -2.2306,-0.924 -3.0263,-4.124 -1.7759,-7.143 1.2505,-3.019 4.0761,-4.719 6.3071,-3.795 2.23,0.924 3.026,4.124 1.775,7.143 -1.25,3.019 -4.076,4.719 -6.3062,3.795 z"
               id="path26"
               inkscape:connector-curvature="0" />
            <path
               style="fill:#0090cd;stroke:none"
               d="m 127.501,479.476 c -2.231,0.924 -5.057,-0.776 -6.307,-3.795 -1.25,-3.019 -0.455,-6.219 1.776,-7.143 2.231,-0.924 5.056,0.776 6.306,3.795 1.251,3.019 0.455,6.219 -1.775,7.143 z"
               id="path28"
               inkscape:connector-curvature="0" />
            <path
               style="fill:#0090cd;stroke:none"
               d="m 147.174,459.802 c -0.924,2.231 -4.124,3.027 -7.143,1.776 -3.019,-1.25 -4.719,-4.076 -3.795,-6.306 0.924,-2.231 4.124,-3.027 7.143,-1.776 3.019,1.25 4.719,4.076 3.795,6.306 z"
               id="path30"
               inkscape:connector-curvature="0" />
            <path
               style="fill:#0090cd;stroke:none"
               d="m 147.174,431.98 c 0.924,2.23 -0.776,5.056 -3.795,6.306 -3.019,1.251 -6.219,0.455 -7.143,-1.776 -0.924,-2.23 0.776,-5.056 3.795,-6.306 3.019,-1.251 6.219,-0.455 7.143,1.776 z"
               id="path32"
               inkscape:connector-curvature="0" />
            <path
               style="fill:#0090cd;stroke:none"
               d="m 127.5,412.306 c 2.231,0.924 3.027,4.124 1.776,7.143 -1.25,3.019 -4.076,4.719 -6.306,3.795 -2.231,-0.924 -3.027,-4.124 -1.776,-7.143 1.25,-3.019 4.076,-4.719 6.306,-3.795 z"
               id="path34"
               inkscape:connector-curvature="0" />
          </g>
          <path
             style="fill:#0091cf;stroke:none"
             d="m 90.7931,391.486 c 2.0222,-0.838 4.5837,0.704 5.7173,3.44 1.1335,2.737 0.4122,5.638 -1.6099,6.476 -2.0222,0.838 -4.5837,-0.704 -5.7173,-3.441 -1.1335,-2.736 -0.4122,-5.637 1.6099,-6.475 z"
             id="path36"
             inkscape:connector-curvature="0" />
          <path
             style="fill:#0091cf;stroke:none"
             d="m 58.9996,423.54 c 0.8376,-2.022 3.7388,-2.743 6.4755,-1.61 2.7366,1.134 4.2781,3.695 3.4404,5.717 -0.8376,2.023 -3.7388,2.744 -6.4754,1.61 -2.7367,-1.133 -4.2781,-3.695 -3.4405,-5.717 z"
             id="path38"
             inkscape:connector-curvature="0" />
          <path
             style="fill:#0091cf;stroke:none"
             d="m 59.1852,468.686 c -0.8376,-2.022 0.7038,-4.584 3.4405,-5.717 2.7366,-1.134 5.6378,-0.413 6.4754,1.61 0.8376,2.022 -0.7038,4.583 -3.4404,5.717 -2.7367,1.133 -5.6379,0.412 -6.4755,-1.61 z"
             id="path40"
             inkscape:connector-curvature="0" />
          <path
             style="fill:#0091cf;stroke:none"
             d="m 91.2389,500.478 c -2.0222,-0.837 -2.7435,-3.738 -1.6099,-6.475 1.1336,-2.737 3.695,-4.278 5.7172,-3.44 2.0222,0.837 2.7435,3.738 1.6099,6.475 -1.1335,2.737 -3.695,4.278 -5.7172,3.44 z"
             id="path42"
             inkscape:connector-curvature="0" />
          <path
             style="fill:#0091cf;stroke:none"
             d="m 136.385,500.294 c -2.022,0.837 -4.583,-0.704 -5.717,-3.441 -1.133,-2.736 -0.412,-5.637 1.61,-6.475 2.022,-0.838 4.584,0.704 5.717,3.44 1.134,2.737 0.413,5.638 -1.61,6.476 z"
             id="path44"
             inkscape:connector-curvature="0" />
          <path
             style="fill:#0091cf;stroke:none"
             d="m 168.178,468.24 c -0.838,2.022 -3.739,2.743 -6.476,1.61 -2.736,-1.134 -4.278,-3.695 -3.44,-5.717 0.838,-2.022 3.739,-2.744 6.475,-1.61 2.737,1.133 4.279,3.695 3.441,5.717 z"
             id="path46"
             inkscape:connector-curvature="0" />
          <path
             style="fill:#0091cf;stroke:none"
             d="m 167.993,423.094 c 0.838,2.022 -0.704,4.583 -3.44,5.717 -2.737,1.134 -5.638,0.412 -6.476,-1.61 -0.837,-2.022 0.704,-4.584 3.441,-5.717 2.736,-1.134 5.638,-0.412 6.475,1.61 z"
             id="path48"
             inkscape:connector-curvature="0" />
          <path
             style="fill:#0091cf;stroke:none"
             d="m 135.939,391.301 c 2.023,0.838 2.744,3.739 1.61,6.476 -1.133,2.736 -3.695,4.278 -5.717,3.44 -2.022,-0.837 -2.743,-3.739 -1.61,-6.475 1.134,-2.737 3.695,-4.278 5.717,-3.441 z"
             id="path50"
             inkscape:connector-curvature="0" />
          <path
             style="fill:#0091cf;stroke:none"
             d="m 198.079,432.33 0,9.602 c 0.903,0.13 2.061,0.241 3.376,0.241 3.162,0 5.801,-1.869 5.801,-5.127 0,-3.259 -2.822,-4.551 -4.936,-4.847 -2.114,-0.297 -3.347,-0.109 -4.241,0.131 z m 0,15.142 0,10.833 c 0,0 4.877,0.59 7.235,-0.214 2.358,-0.804 4.127,-3.001 3.805,-5.842 -0.321,-2.841 -2.84,-4.877 -6.002,-4.984 -1.608,-0.055 -3.533,0.071 -5.038,0.207 z m -5.422,16.514 c -0.762,0 -1.385,-0.569 -1.385,-1.264 l 0,-33.808 c 0,-0.696 0.623,-1.265 1.385,-1.265 0,0 7.325,-0.522 12.041,0.068 4.716,0.589 8.87,4.755 8.87,8.829 0,4.073 -2.412,6.699 -4.127,7.503 0,0 4.448,2.09 5.413,5.788 0.965,3.698 0.107,10.347 -5.038,12.809 -5.145,2.463 -17.159,1.34 -17.159,1.34 z m 26.792,-24.128 1.508,2.953 c 0.362,0.709 0.776,0.946 1.393,0.574 1.062,-0.641 3.079,-1.493 5.08,-1.493 2.885,0 5.503,1.573 5.663,5.305 -0.965,-0.333 -2.478,-0.727 -4.241,-0.727 -3.058,0 -10.997,1.224 -10.997,8.834 0,7.61 6.217,9.004 10.451,9.004 4.234,0 8.755,-1.224 10.498,-2.463 0,0 0,-13.167 0,-15.187 0,-2.019 -0.59,-5.223 -2.843,-7.189 -2.13,-1.858 -9.05,-5.264 -15.798,-1.272 -0.987,0.584 -0.93,1.24 -0.714,1.661 z m 13.652,12.88 0,5.678 c 0,0 -1.647,1.087 -4.571,1.087 -2.924,0 -5.017,-1.697 -5.017,-4.255 0,-2.558 2.676,-3.904 4.802,-3.904 2.126,0 3.579,0.441 4.786,1.394 z m 11.177,-15.978 1.447,0 c 1.326,0 2.412,1.085 2.412,2.412 l 0,0.986 c 1.736,-1.621 4.464,-3.463 7.89,-3.463 6.116,0 8.135,5.736 8.135,9.283 l 0,4.353 0,10.279 0,1.661 c 0,0.714 -0.584,1.298 -1.298,1.298 l -3.676,0 c -0.713,0 -1.297,-0.584 -1.297,-1.298 l 0,-1.661 0,-10.279 0,-4.353 c 0,-0.492 -0.389,-3.682 -4.252,-3.682 -2.413,0 -4.372,2.638 -5.502,4.618 l 0,3.417 0,3.472 0,8.468 c 0,0.714 -0.584,1.298 -1.298,1.298 l -3.676,0 c -0.713,0 -1.297,-0.584 -1.297,-1.298 l 0,-8.468 0,-3.472 0,-11.159 c 0,-1.327 1.085,-2.412 2.412,-2.412 z m 58.001,-0.011 c 7.019,0 12.713,6.216 12.713,13.881 0,7.664 -5.694,13.88 -12.713,13.88 -7.02,0 -12.713,-6.216 -12.713,-13.88 0,-7.665 5.693,-13.881 12.713,-13.881 z m 0,5.169 c 3.279,0 5.938,3.901 5.938,8.712 0,4.81 -2.659,8.711 -5.938,8.711 -3.279,0 -5.938,-3.901 -5.938,-8.711 0,-4.811 2.659,-8.712 5.938,-8.712 z m -20.366,-5.169 c 1.993,0 3.893,0.389 5.62,1.093 1.002,0.408 1.57,0.674 1.279,1.764 l -0.895,3.349 c -0.168,0.629 -0.568,0.821 -1.374,0.287 -1.244,-0.823 -2.692,-1.324 -4.255,-1.324 -4.433,0 -8.029,3.901 -8.029,8.712 0,4.81 3.596,8.711 8.029,8.711 1.499,0 2.9,-0.45 4.103,-1.223 1.01,-0.649 1.295,-0.589 1.527,0.187 l 0.916,3.432 c 0.109,0.408 0.108,1.047 -0.591,1.369 -1.919,0.882 -4.06,1.404 -6.33,1.404 -7.967,0 -14.428,-6.216 -14.428,-13.88 0,-7.665 6.461,-13.881 14.428,-13.881 z m 63.442,-10.386 c 2.562,0 5.003,0.535 7.223,1.502 1.287,0.561 2.017,0.926 1.643,2.424 l -0.918,3.677 c -0.216,0.864 -0.73,1.127 -1.766,0.394 -1.599,-1.131 -3.46,-1.819 -5.469,-1.819 -5.696,0 -11.673,4.57 -11.673,12.895 0,8.325 6.008,13.023 11.705,13.023 1.926,0 3.727,-0.619 5.273,-1.681 1.298,-0.892 1.664,-0.81 1.962,0.257 l 0.915,3.664 c 0.14,0.561 0.138,1.439 -0.76,1.881 -2.466,1.212 -5.217,1.93 -8.135,1.93 -10.238,0 -18.541,-8.541 -18.541,-19.074 0,-10.532 8.303,-19.073 18.541,-19.073 z m 42.134,11.683 -1.783,0 -3.083,0 c -0.975,0 -1.772,0.798 -1.772,1.773 l 0,1.297 c 0,0.975 0.797,1.773 1.772,1.773 l 1.86,0 0,21.267 c 0,1.621 0,0.517 0,1.621 0,1.104 -1.539,1.642 -2.639,1.642 -1.101,0 -2.013,-1.427 -2.71,-0.565 -0.698,0.862 -2.066,2.639 -2.388,3.07 -0.322,0.43 0.027,1.104 1.315,1.804 1.288,0.7 2.937,1.211 5.191,1.211 2.253,0 4.6,-0.899 6.022,-3.026 1.422,-2.128 1.211,-4.254 1.211,-5.757 l 0,-24.886 c 0,-0.673 -0.55,-1.224 -1.223,-1.224 l -1.773,0 z m -1.514,-11.233 1.502,0 c 1.874,0 3.407,1.533 3.407,3.407 l 0,0.43 c 0,1.874 -1.533,3.407 -3.407,3.407 l -1.502,0 c -1.874,0 -3.407,-1.533 -3.407,-3.407 l 0,-0.43 c 0,-1.874 1.533,-3.407 3.407,-3.407 z m 80.794,9.936 c 7.02,0 12.713,6.216 12.713,13.881 0,7.664 -5.693,13.88 -12.713,13.88 -7.02,0 -12.713,-6.216 -12.713,-13.88 0,-7.665 5.693,-13.881 12.713,-13.881 z m 0,5.169 c 3.279,0 5.938,3.901 5.938,8.712 0,4.81 -2.659,8.711 -5.938,8.711 -3.279,0 -5.938,-3.901 -5.938,-8.711 0,-4.811 2.659,-8.712 5.938,-8.712 z m 28.651,-5.169 c 1.994,0 3.893,0.389 5.621,1.093 1.001,0.408 1.569,0.674 1.278,1.764 l -0.894,3.349 c -0.168,0.629 -0.568,0.821 -1.374,0.287 -1.244,-0.823 -2.693,-1.324 -4.256,-1.324 -4.433,0 -8.028,3.901 -8.028,8.712 0,4.81 3.595,8.711 8.028,8.711 1.5,0 2.9,-0.45 4.103,-1.223 1.011,-0.649 1.296,-0.589 1.527,0.187 l 0.917,3.432 c 0.109,0.408 0.108,1.047 -0.591,1.369 -1.92,0.882 -4.06,1.404 -6.331,1.404 -7.967,0 -14.428,-6.216 -14.428,-13.88 0,-7.665 6.461,-13.881 14.428,-13.881 z m 15.129,1.297 -1.783,0 -3.083,0 c -0.975,0 -1.773,0.798 -1.773,1.773 l 0,1.297 c 0,0.975 0.798,1.773 1.773,1.773 l 1.859,0 0,19.373 c 0,0.975 0.634,1.349 1.246,1.349 l 3.595,0 c 0.838,0 1.162,-0.591 1.162,-1.363 l 0,-22.978 c 0,-0.673 -0.551,-1.224 -1.224,-1.224 l -1.772,0 z m -1.515,-11.233 1.503,0 c 1.874,0 3.407,1.533 3.407,3.407 l 0,0.43 c 0,1.874 -1.533,3.407 -3.407,3.407 l -1.503,0 c -1.874,0 -3.407,-1.533 -3.407,-3.407 l 0,-0.43 c 0,-1.874 1.533,-3.407 3.407,-3.407 z m -151.625,13.045 1.509,2.953 c 0.362,0.709 0.776,0.946 1.393,0.574 1.061,-0.641 3.079,-1.493 5.08,-1.493 2.885,0 5.503,1.573 5.663,5.305 -0.965,-0.333 -2.479,-0.727 -4.242,-0.727 -3.058,0 -10.996,1.224 -10.996,8.834 0,7.61 6.217,9.004 10.451,9.004 4.234,0 8.754,-1.224 10.498,-2.463 0,0 0,-13.167 0,-15.187 0,-2.019 -0.59,-5.223 -2.844,-7.189 -2.13,-1.858 -9.049,-5.264 -15.797,-1.272 -0.987,0.584 -0.93,1.24 -0.715,1.661 z m 13.653,12.88 0,5.678 c 0,0 -1.647,1.087 -4.571,1.087 -2.924,0 -5.017,-1.697 -5.017,-4.255 0,-2.558 2.676,-3.904 4.802,-3.904 2.126,0 3.578,0.441 4.786,1.394 z m 25.15,-12.88 1.508,2.953 c 0.363,0.709 0.777,0.946 1.394,0.574 1.061,-0.641 3.079,-1.493 5.08,-1.493 2.884,0 5.503,1.573 5.663,5.305 -0.965,-0.333 -2.479,-0.727 -4.242,-0.727 -3.058,0 -10.996,1.224 -10.996,8.834 0,7.61 6.217,9.004 10.451,9.004 4.234,0 8.754,-1.224 10.498,-2.463 0,0 0,-13.167 0,-15.187 0,-2.019 -0.59,-5.223 -2.844,-7.189 -2.13,-1.858 -9.049,-5.264 -15.798,-1.272 -0.986,0.584 -0.929,1.24 -0.714,1.661 z m 13.653,12.88 0,5.678 c 0,0 -1.648,1.087 -4.572,1.087 -2.924,0 -5.016,-1.697 -5.016,-4.255 0,-2.558 2.675,-3.904 4.802,-3.904 2.126,0 3.578,0.441 4.786,1.394 z m 108.079,-12.88 1.508,2.953 c 0.363,0.709 0.777,0.946 1.393,0.574 1.062,-0.641 3.08,-1.493 5.08,-1.493 2.885,0 5.504,1.573 5.664,5.305 -0.966,-0.333 -2.479,-0.727 -4.242,-0.727 -3.058,0 -10.996,1.224 -10.996,8.834 0,7.61 6.217,9.004 10.451,9.004 4.234,0 8.754,-1.224 10.498,-2.463 0,0 0,-13.167 0,-15.187 0,-2.019 -0.59,-5.223 -2.844,-7.189 -2.13,-1.858 -9.05,-5.264 -15.798,-1.272 -0.986,0.584 -0.929,1.24 -0.714,1.661 z m 13.653,12.88 0,5.678 c 0,0 -1.648,1.087 -4.572,1.087 -2.924,0 -5.016,-1.697 -5.016,-4.255 0,-2.558 2.675,-3.904 4.802,-3.904 2.126,0 3.578,0.441 4.786,1.394 z m -85.665,0.491 c 0,-2.599 -2.897,-4.255 -6.116,-5.547 -3.22,-1.293 -8.022,-3.662 -9.524,-6.732 -0.739,-1.511 -0.956,-4.188 -0.447,-5.995 1.016,-3.605 4.062,-5.972 7.444,-7.266 2.079,-0.795 4.662,-0.9 7.13,-0.541 1.86,0.271 3.656,0.806 5.122,1.509 1.207,0.579 1.663,0.916 1.221,1.98 -0.443,1.063 -1.221,2.423 -1.435,2.827 -0.215,0.404 -0.497,0.969 -1.597,0.403 -1.339,-0.688 -3.137,-1.441 -4.798,-1.452 -1.465,-0.01 -3.066,0.099 -4.263,0.73 -3.209,1.692 -3.04,4.587 -0.103,6.434 1.901,1.196 4.774,1.991 7.393,3.337 4.506,2.315 6.599,5.6 6.599,9.128 0,3.527 -1.189,8.566 -6.28,11.031 -2.854,1.382 -5.947,1.81 -8.501,1.758 -1.54,-0.032 -3.089,-0.308 -4.593,-0.747 -1.286,-0.376 -2.54,-0.872 -3.725,-1.437 -0.86,-0.409 -0.498,-0.831 -0.387,-1.249 0.239,-0.891 0.942,-3.259 1.264,-3.986 0.322,-0.727 0.898,-1.131 2.106,-0.391 1.207,0.741 3.069,1.658 6.14,1.658 3.072,0 5.057,-0.956 6.036,-2.168 0.98,-1.212 1.322,-2.29 1.314,-3.284 z m 94.711,-23.939 c 0,-1.326 1.086,-2.412 2.413,-2.412 l 1.177,0 c 1.327,0 2.413,1.086 2.413,2.412 l 0,25.931 c 0,1.805 0.484,2.982 2.971,2.982 l 1.839,0 c 0.975,0 1.773,0.798 1.773,1.773 l 0,2.509 c 0,0.974 -0.798,1.772 -1.773,1.772 l -4.465,0 c -3.946,0 -6.348,-2.705 -6.348,-6.259 l 0,-28.708 z"
             id="path52"
             inkscape:connector-curvature="0" />
        </g>
      </g>
    </g>
  </g>
</svg>
