<?xml version="1.0" encoding="UTF-8"?>
<svg id="Capa_1" data-name="Capa 1" xmlns="http://www.w3.org/2000/svg" viewBox="0 0 1000 130">
  <defs>
    <style>
      .cls-1 {
        fill: #fff;
      }
    </style>
  </defs>
  <g>
    <path class="cls-1" d="M247.47,25.2v14.95h-67.08v23.44h54.96v14.01h-54.96v34.75h-17.91V25.2h84.99Z"/>
    <path class="cls-1" d="M280.07,16.04v15.36h-20.34v-15.36h20.34ZM261.08,45.4h17.51v66.94h-17.51V45.4Z"/>
    <path class="cls-1" d="M296.1,45.4h17.51v66.94h-17.51V45.4ZM344.72,43.92c4.13,0,7.95.54,11.45,1.62,3.5,1.08,6.55,2.74,9.16,4.98,2.6,2.25,4.62,5.1,6.06,8.55,1.44,3.46,2.16,7.57,2.16,12.32v40.95h-17.51v-37.85c0-5.66-1.37-9.81-4.11-12.46-2.74-2.65-7.21-3.97-13.4-3.97-4.67,0-8.89.9-12.66,2.69-3.77,1.8-6.83,4.06-9.16,6.8-2.34,2.74-3.68,5.59-4.04,8.55l-.14-6.87c.45-3.14,1.48-6.2,3.1-9.16,1.62-2.96,3.79-5.68,6.53-8.15,2.74-2.47,5.99-4.42,9.77-5.86,3.77-1.44,8.03-2.15,12.8-2.15Z"/>
    <path class="cls-1" d="M422.04,113.83c-6.65,0-12.68-1.46-18.12-4.38-5.43-2.92-9.74-7-12.93-12.26-3.19-5.25-4.78-11.34-4.78-18.25s1.62-13.24,4.85-18.45c3.23-5.21,7.61-9.27,13.13-12.19,5.52-2.92,11.79-4.38,18.79-4.38,7.72,0,13.94,1.55,18.65,4.65,4.71,3.1,8.15,7.3,10.3,12.59,2.16,5.3,3.23,11.23,3.23,17.78,0,3.95-.63,7.97-1.89,12.06-1.26,4.09-3.19,7.86-5.79,11.31-2.61,3.46-6.02,6.24-10.24,8.35-4.22,2.11-9.29,3.17-15.22,3.17ZM427.69,100.36c5.3,0,9.88-.9,13.74-2.69,3.86-1.8,6.82-4.31,8.89-7.54,2.06-3.23,3.1-6.96,3.1-11.18,0-4.58-1.06-8.46-3.17-11.65-2.11-3.19-5.07-5.61-8.89-7.27-3.82-1.66-8.37-2.49-13.67-2.49-7.45,0-13.25,1.95-17.38,5.86-4.13,3.91-6.2,9.09-6.2,15.56,0,4.31.99,8.06,2.96,11.25,1.97,3.19,4.74,5.68,8.28,7.47,3.55,1.8,7.65,2.69,12.32,2.69ZM453.42,45.4h17.51v66.94h-16.3c-.45-3.5-.76-6.6-.94-9.29-.18-2.69-.27-5.34-.27-7.95v-49.7Z"/>
    <path class="cls-1" d="M486.82,45.4h17.51v66.94h-17.51V45.4ZM535.45,43.92c4.13,0,7.95.54,11.45,1.62,3.5,1.08,6.55,2.74,9.16,4.98,2.6,2.25,4.62,5.1,6.06,8.55,1.44,3.46,2.16,7.57,2.16,12.32v40.95h-17.51v-37.85c0-5.66-1.37-9.81-4.11-12.46-2.74-2.65-7.21-3.97-13.4-3.97-4.67,0-8.89.9-12.66,2.69-3.77,1.8-6.83,4.06-9.16,6.8-2.34,2.74-3.68,5.59-4.04,8.55l-.14-6.87c.45-3.14,1.48-6.2,3.1-9.16,1.62-2.96,3.79-5.68,6.53-8.15,2.74-2.47,5.99-4.42,9.77-5.86,3.77-1.44,8.03-2.15,12.8-2.15Z"/>
    <path class="cls-1" d="M659.63,85.95c-.45,5.84-2.31,10.86-5.59,15.09-3.28,4.22-7.79,7.43-13.54,9.63-5.75,2.2-12.57,3.3-20.47,3.3s-15.65-1.33-22.16-3.97c-6.51-2.65-11.63-6.55-15.36-11.72-3.73-5.16-5.59-11.56-5.59-19.19s1.86-14.05,5.59-19.26c3.73-5.21,8.84-9.16,15.36-11.85,6.51-2.69,13.89-4.04,22.16-4.04s14.68,1.1,20.34,3.3c5.66,2.2,10.12,5.37,13.4,9.5,3.28,4.13,5.19,9.11,5.72,14.95h-16.03c-1.53-4.49-4.36-7.99-8.49-10.51-4.13-2.51-9.11-3.77-14.95-3.77-4.67,0-8.91.81-12.73,2.42-3.82,1.62-6.87,4.02-9.16,7.21-2.29,3.19-3.43,7.21-3.43,12.06s1.12,8.73,3.37,11.92c2.24,3.19,5.3,5.57,9.16,7.14,3.86,1.57,8.13,2.36,12.8,2.36,6.28,0,11.43-1.26,15.42-3.77,3.99-2.51,6.71-6.11,8.15-10.78h16.03Z"/>
    <path class="cls-1" d="M733.58,90.12h16.97c-.72,4.58-2.63,8.67-5.72,12.26-3.1,3.59-7.3,6.42-12.59,8.49-5.3,2.07-11.76,3.1-19.4,3.1-8.53,0-16.08-1.37-22.63-4.11-6.56-2.74-11.67-6.71-15.35-11.92-3.68-5.21-5.52-11.49-5.52-18.86s1.8-13.67,5.39-18.92c3.59-5.25,8.6-9.27,15.02-12.06,6.42-2.78,13.94-4.17,22.56-4.17s16.12,1.39,21.96,4.17c5.84,2.78,10.17,6.98,13,12.59,2.83,5.61,4.02,12.78,3.57,21.48h-63.85c.45,3.41,1.73,6.51,3.84,9.29,2.11,2.78,4.98,4.98,8.62,6.6,3.64,1.62,7.97,2.42,13,2.42,5.57,0,10.21-.96,13.94-2.9,3.73-1.93,6.13-4.42,7.21-7.48ZM711.49,57.26c-6.46,0-11.72,1.41-15.76,4.24-4.04,2.83-6.65,6.31-7.81,10.44h45.53c-.45-4.49-2.58-8.06-6.4-10.71-3.82-2.65-9-3.97-15.56-3.97Z"/>
    <path class="cls-1" d="M784.09,18.46v76.64c0,2.87-.13,5.95-.4,9.23-.27,3.28-.54,5.95-.81,8.01h-16.3V18.46h17.51ZM815.47,113.83c-5.93,0-11-1.06-15.22-3.17-4.22-2.11-7.63-4.89-10.24-8.35-2.61-3.46-4.54-7.23-5.79-11.31-1.26-4.09-1.89-8.1-1.89-12.06,0-4.94.61-9.52,1.82-13.74,1.21-4.22,3.12-7.92,5.72-11.11,2.6-3.19,6.01-5.68,10.24-7.48,4.22-1.8,9.34-2.69,15.36-2.69,6.91,0,13.04,1.46,18.39,4.38,5.34,2.92,9.56,6.98,12.66,12.19,3.1,5.21,4.65,11.36,4.65,18.45s-1.57,13-4.71,18.25c-3.14,5.25-7.41,9.34-12.8,12.26-5.39,2.92-11.45,4.38-18.18,4.38ZM809.82,100.36c4.76,0,8.89-.9,12.39-2.69,3.5-1.8,6.22-4.29,8.15-7.47,1.93-3.19,2.9-6.94,2.9-11.25,0-6.47-2.04-11.67-6.13-15.62-4.09-3.95-9.86-5.93-17.31-5.93-5.21,0-9.74.85-13.6,2.56-3.86,1.71-6.85,4.15-8.96,7.34-2.11,3.19-3.17,7.07-3.17,11.65,0,4.22,1.03,7.95,3.1,11.18,2.06,3.23,5.03,5.75,8.89,7.54,3.86,1.8,8.44,2.69,13.74,2.69Z"/>
    <path class="cls-1" d="M864.1,45.4h17.51v66.94h-17.51V45.4ZM907.33,59.81c-5.03,0-9.38.97-13.07,2.9-3.68,1.93-6.65,4.29-8.89,7.07-2.25,2.78-3.82,5.48-4.71,8.08l-.14-7.41c.09-1.08.45-2.67,1.08-4.78.63-2.11,1.57-4.4,2.83-6.87,1.26-2.47,2.92-4.85,4.98-7.14,2.07-2.29,4.58-4.15,7.54-5.59,2.96-1.44,6.42-2.15,10.37-2.15v15.89Z"/>
    <path class="cls-1" d="M957.57,113.96c-8.44,0-15.87-1.35-22.29-4.04-6.42-2.69-11.43-6.62-15.02-11.79-3.59-5.16-5.39-11.52-5.39-19.06s1.79-13.94,5.39-19.19c3.59-5.25,8.6-9.23,15.02-11.92,6.42-2.69,13.85-4.04,22.29-4.04s15.83,1.35,22.16,4.04c6.33,2.69,11.29,6.67,14.88,11.92,3.59,5.25,5.39,11.65,5.39,19.19s-1.8,13.9-5.39,19.06c-3.59,5.17-8.55,9.09-14.88,11.79-6.33,2.69-13.72,4.04-22.16,4.04ZM957.57,100.49c4.67,0,8.87-.83,12.59-2.49,3.72-1.66,6.67-4.08,8.82-7.27,2.16-3.19,3.23-7.07,3.23-11.65s-1.08-8.51-3.23-11.79c-2.16-3.28-5.07-5.77-8.75-7.48-3.68-1.7-7.9-2.56-12.66-2.56s-8.89.85-12.66,2.56c-3.77,1.71-6.76,4.18-8.96,7.41-2.2,3.23-3.3,7.18-3.3,11.85s1.08,8.46,3.23,11.65c2.16,3.19,5.12,5.61,8.89,7.27,3.77,1.66,8.04,2.49,12.8,2.49Z"/>
  </g>
  <g>
    <polygon class="cls-1" points="79.65 45.31 79.65 80.7 44.26 80.7 79.65 45.31"/>
    <polygon class="cls-1" points="127.9 1.05 102.14 26.58 25.53 26.58 51.07 1.05 127.9 1.05"/>
    <polygon class="cls-1" points="25.53 26.58 0 52.23 0 128.95 25.53 103.42 25.53 26.58"/>
  </g>
</svg>