<?xml version="1.0" encoding="UTF-8"?>
<svg id="Capa_1" data-name="Capa 1" xmlns="http://www.w3.org/2000/svg" viewBox="0 0 1000 130">
  <defs>
    <style>
      .cls-1 {
        fill: #0d1b2a;
      }
    </style>
  </defs>
  <path class="cls-1" d="M101.48,17.48v17.85H21.39v27.98h65.62v16.73H21.39v41.49H0V17.48h101.48Z"/>
  <path class="cls-1" d="M140.4,6.54v18.33h-24.29V6.54h24.29ZM117.72,41.6h20.91v79.93h-20.91V41.6Z"/>
  <path class="cls-1" d="M159.54,41.6h20.91v79.93h-20.91V41.6ZM217.59,39.83c4.93,0,9.49.64,13.67,1.93,4.18,1.29,7.82,3.27,10.94,5.95,3.11,2.68,5.52,6.09,7.24,10.21,1.71,4.13,2.57,9.03,2.57,14.72v48.89h-20.91v-45.19c0-6.75-1.64-11.71-4.91-14.88-3.27-3.16-8.6-4.74-16-4.74-5.58,0-10.61,1.07-15.12,3.22-4.5,2.15-8.15,4.85-10.94,8.12-2.79,3.27-4.4,6.67-4.82,10.21l-.16-8.2c.54-3.75,1.77-7.4,3.7-10.94,1.93-3.54,4.53-6.78,7.8-9.73,3.27-2.95,7.16-5.28,11.66-7,4.5-1.71,9.59-2.57,15.28-2.57Z"/>
  <path class="cls-1" d="M309.91,123.3c-7.94,0-15.15-1.74-21.63-5.23-6.49-3.48-11.63-8.36-15.44-14.64-3.81-6.27-5.71-13.53-5.71-21.79s1.93-15.81,5.79-22.03c3.86-6.22,9.09-11.07,15.68-14.55,6.59-3.48,14.07-5.23,22.44-5.23,9.22,0,16.65,1.85,22.27,5.55,5.63,3.7,9.73,8.71,12.3,15.04,2.57,6.33,3.86,13.4,3.86,21.23,0,4.72-.75,9.52-2.25,14.39-1.5,4.88-3.81,9.38-6.92,13.51-3.11,4.13-7.18,7.45-12.22,9.97-5.04,2.52-11.1,3.78-18.17,3.78ZM316.66,107.22c6.32,0,11.79-1.07,16.4-3.22,4.61-2.14,8.15-5.15,10.61-9.01,2.46-3.86,3.7-8.31,3.7-13.35,0-5.47-1.26-10.1-3.78-13.91-2.52-3.8-6.06-6.7-10.61-8.68-4.56-1.98-10-2.98-16.32-2.98-8.9,0-15.82,2.33-20.75,7-4.93,4.66-7.4,10.86-7.4,18.58,0,5.15,1.18,9.62,3.54,13.43,2.36,3.81,5.65,6.78,9.89,8.93,4.23,2.15,9.14,3.22,14.72,3.22ZM347.38,41.6h20.91v79.93h-19.46c-.54-4.18-.91-7.88-1.13-11.1-.22-3.22-.32-6.38-.32-9.49v-59.34Z"/>
  <path class="cls-1" d="M387.26,41.6h20.91v79.93h-20.91V41.6ZM445.32,39.83c4.93,0,9.49.64,13.67,1.93,4.18,1.29,7.82,3.27,10.94,5.95,3.11,2.68,5.52,6.09,7.24,10.21,1.71,4.13,2.57,9.03,2.57,14.72v48.89h-20.91v-45.19c0-6.75-1.64-11.71-4.9-14.88-3.27-3.16-8.6-4.74-16-4.74-5.58,0-10.61,1.07-15.12,3.22-4.5,2.15-8.15,4.85-10.94,8.12-2.79,3.27-4.4,6.67-4.82,10.21l-.16-8.2c.53-3.75,1.77-7.4,3.7-10.94,1.93-3.54,4.53-6.78,7.8-9.73,3.27-2.95,7.16-5.28,11.66-7,4.5-1.71,9.59-2.57,15.28-2.57Z"/>
  <path class="cls-1" d="M593.6,90.01c-.54,6.97-2.76,12.97-6.67,18.01-3.92,5.04-9.3,8.87-16.16,11.5-6.86,2.63-15.01,3.94-24.44,3.94s-18.68-1.58-26.46-4.74c-7.78-3.16-13.89-7.82-18.33-13.99-4.45-6.16-6.67-13.8-6.67-22.92s2.22-16.78,6.67-23c4.45-6.22,10.56-10.94,18.33-14.15,7.77-3.22,16.59-4.82,26.46-4.82s17.53,1.31,24.28,3.94c6.75,2.63,12.09,6.41,16,11.34,3.91,4.93,6.19,10.88,6.83,17.85h-19.14c-1.82-5.36-5.2-9.54-10.13-12.54-4.93-3-10.88-4.5-17.85-4.5-5.58,0-10.64.96-15.2,2.89-4.56,1.93-8.2,4.8-10.94,8.6-2.73,3.81-4.1,8.6-4.1,14.39s1.34,10.43,4.02,14.23c2.68,3.81,6.32,6.65,10.94,8.52,4.61,1.88,9.7,2.81,15.28,2.81,7.5,0,13.64-1.5,18.41-4.5,4.77-3,8.01-7.29,9.73-12.87h19.14Z"/>
  <path class="cls-1" d="M681.89,94.99h20.26c-.86,5.47-3.14,10.35-6.84,14.64-3.7,4.29-8.71,7.67-15.04,10.13-6.33,2.47-14.05,3.7-23.16,3.7-10.19,0-19.19-1.64-27.02-4.91-7.83-3.27-13.94-8.01-18.33-14.23-4.4-6.22-6.59-13.72-6.59-22.52s2.14-16.32,6.43-22.6c4.29-6.27,10.26-11.07,17.93-14.39,7.66-3.32,16.65-4.98,26.94-4.98s19.24,1.66,26.22,4.98c6.97,3.33,12.14,8.34,15.52,15.04,3.38,6.7,4.8,15.25,4.26,25.65h-76.23c.54,4.08,2.06,7.78,4.58,11.1,2.52,3.32,5.95,5.95,10.29,7.88,4.34,1.93,9.51,2.9,15.52,2.9,6.65,0,12.2-1.15,16.65-3.46,4.45-2.3,7.32-5.28,8.6-8.93ZM655.52,55.75c-7.72,0-13.99,1.69-18.82,5.07-4.82,3.38-7.94,7.53-9.33,12.46h54.36c-.54-5.36-3.08-9.62-7.64-12.79-4.56-3.16-10.75-4.74-18.58-4.74Z"/>
  <path class="cls-1" d="M742.2,9.43v91.51c0,3.43-.16,7.1-.48,11.02-.32,3.92-.64,7.1-.96,9.57h-19.46V9.43h20.91ZM779.67,123.3c-7.08,0-13.14-1.26-18.17-3.78-5.04-2.52-9.11-5.84-12.22-9.97-3.11-4.13-5.41-8.63-6.92-13.51-1.5-4.88-2.25-9.68-2.25-14.39,0-5.9.72-11.36,2.17-16.4,1.45-5.04,3.72-9.46,6.84-13.27,3.11-3.81,7.18-6.78,12.22-8.93,5.04-2.14,11.15-3.22,18.33-3.22,8.26,0,15.57,1.74,21.95,5.23,6.38,3.48,11.42,8.34,15.12,14.55,3.7,6.22,5.55,13.56,5.55,22.03s-1.88,15.52-5.63,21.79c-3.75,6.27-8.84,11.15-15.28,14.64-6.43,3.48-13.67,5.23-21.71,5.23ZM772.92,107.22c5.68,0,10.61-1.07,14.8-3.22,4.18-2.14,7.42-5.12,9.73-8.93,2.3-3.81,3.46-8.28,3.46-13.43,0-7.72-2.44-13.94-7.32-18.66-4.88-4.72-11.77-7.08-20.67-7.08-6.22,0-11.64,1.02-16.24,3.06-4.61,2.04-8.18,4.96-10.69,8.76-2.52,3.81-3.78,8.44-3.78,13.91,0,5.04,1.23,9.49,3.7,13.35,2.46,3.86,6,6.86,10.61,9.01,4.61,2.15,10.08,3.22,16.41,3.22Z"/>
  <path class="cls-1" d="M837.73,41.6h20.91v79.93h-20.91V41.6ZM889.35,58.81c-6.01,0-11.21,1.15-15.6,3.46-4.4,2.31-7.94,5.12-10.61,8.44-2.68,3.32-4.56,6.54-5.63,9.65l-.16-8.85c.11-1.29.53-3.19,1.29-5.71.75-2.52,1.87-5.25,3.38-8.2,1.5-2.95,3.48-5.79,5.95-8.52,2.47-2.73,5.47-4.96,9.01-6.67,3.54-1.71,7.66-2.57,12.38-2.57v18.98Z"/>
  <path class="cls-1" d="M949.34,123.46c-10.08,0-18.95-1.61-26.62-4.83-7.67-3.22-13.64-7.91-17.93-14.07-4.29-6.16-6.43-13.75-6.43-22.76s2.14-16.65,6.43-22.92c4.29-6.27,10.27-11.02,17.93-14.23,7.66-3.22,16.54-4.82,26.62-4.82s18.9,1.61,26.46,4.82c7.56,3.22,13.48,7.96,17.77,14.23,4.29,6.27,6.43,13.91,6.43,22.92s-2.15,16.59-6.43,22.76c-4.29,6.17-10.21,10.86-17.77,14.07-7.56,3.22-16.38,4.83-26.46,4.83ZM949.34,107.38c5.57,0,10.59-.99,15.04-2.98,4.45-1.98,7.96-4.88,10.53-8.69,2.57-3.8,3.86-8.44,3.86-13.91s-1.29-10.16-3.86-14.07c-2.57-3.91-6.06-6.89-10.45-8.93-4.4-2.04-9.44-3.06-15.12-3.06s-10.62,1.02-15.12,3.06c-4.5,2.04-8.07,4.99-10.7,8.85-2.63,3.86-3.94,8.58-3.94,14.15s1.29,10.11,3.86,13.91c2.57,3.81,6.11,6.7,10.61,8.69,4.5,1.99,9.59,2.98,15.28,2.98Z"/>
</svg>