<?xml version="1.0" encoding="UTF-8"?>
<svg id="Capa_1" data-name="Capa 1" xmlns="http://www.w3.org/2000/svg" viewBox="0 0 500 500">
  <defs>
    <style>
      .cls-1 {
        fill: #303ae2;
      }

      .cls-2 {
        fill: #052659;
      }
    </style>
  </defs>
  <path class="cls-1" d="M348.16,362.91l134.03,134.03c2.04,2.04,4.71,3.04,7.38,3.04s5.34-1.02,7.38-3.04c4.07-4.07,4.07-10.68,0-14.74h0s-134.03-134.03-134.03-134.03"/>
  <path class="cls-2" d="M348.16,362.91c-37.01,33.51-85.91,54.13-139.64,54.13C93.54,417.04,0,323.48,0,208.53S93.54.01,208.51.01s208.51,93.56,208.53,208.51c0,53.73-20.62,102.63-54.13,139.64M208.51,396.19c103.49,0,187.66-84.18,187.66-187.66S311.98,20.86,208.51,20.86,20.85,105.06,20.85,208.53s84.18,187.66,187.66,187.66Z"/>
</svg>