<?xml version="1.0" encoding="UTF-8"?>
<svg id="Capa_1" data-name="Capa 1" xmlns="http://www.w3.org/2000/svg" viewBox="0 0 500 500">
  <defs>
    <style>
      .cls-1 {
        fill: #303ae2;
      }

      .cls-2 {
        fill: #052659;
      }
    </style>
  </defs>
  <circle class="cls-1" cx="479.16" cy="145.85" r="20.83"/>
  <circle class="cls-1" cx="354.16" cy="20.85" r="20.83"/>
  <path class="cls-2" d="M458.33,270.84v166.66c0,35.04-50.33,62.5-114.58,62.5-47.02,0-86.58-14.71-104.41-36.33-19.08,21.83-61.98,36.33-114.33,36.33C53.76,500,0,473.13,0,437.5V104.18C0,68.56,53.76,41.68,125,41.68s125,26.87,125,62.5v130.29c20.56-15.92,54.58-26.12,93.75-26.12,64.25,0,114.58,27.46,114.58,62.5ZM437.49,307.22c-20.56,15.92-54.58,26.12-93.75,26.12s-73.18-10.21-93.75-26.12v46.96c0,19.71,38.5,41.67,93.75,41.67s93.75-21.96,93.75-41.67v-46.96ZM229.17,139.66c-22.02,16.54-59.69,27.02-104.16,27.02s-82.14-10.48-104.16-27.02v47.85c0,19.67,44.54,41.67,104.16,41.67s104.16-22,104.16-41.67v-47.85ZM20.84,222.99v47.85c0,19.67,44.54,41.67,104.16,41.67s104.16-22,104.16-41.67v-47.85c-22.02,16.54-59.69,27.02-104.16,27.02s-82.14-10.48-104.16-27.02ZM20.84,354.17c0,19.67,44.54,41.67,104.16,41.67s104.16-22,104.16-41.67v-47.85c-22.02,16.54-59.69,27.02-104.16,27.02s-82.14-10.48-104.16-27.02v47.85ZM250,270.84c0,19.71,38.5,41.67,93.75,41.67s93.75-21.96,93.75-41.67-38.5-41.67-93.75-41.67-93.75,21.96-93.75,41.67ZM20.84,104.18c0,19.67,44.54,41.67,104.16,41.67s104.16-22,104.16-41.67-44.54-41.67-104.16-41.67S20.84,84.52,20.84,104.18ZM229.17,437.5v-47.85c-22.02,16.54-59.69,27.02-104.16,27.02s-82.14-10.48-104.16-27.02v47.85c0,19.67,44.54,41.67,104.16,41.67s104.16-22,104.16-41.67ZM437.49,437.5v-46.96c-20.56,15.92-54.58,26.12-93.75,26.12s-73.18-10.21-93.75-26.12v46.96c0,19.71,38.5,41.67,93.75,41.67s93.75-21.96,93.75-41.67Z"/>
  <path class="cls-1" d="M369.83,165.3c1.62.94,3.42,1.37,5.17,1.37,3.62,0,7.12-1.87,9.06-5.25L467.37,15.6c2.85-5,1.12-11.35-3.87-14.21-5-2.9-11.35-1.12-14.21,3.87l-83.33,145.83c-2.85,5-1.12,11.35,3.87,14.21Z"/>
</svg>