<?xml version="1.0" encoding="UTF-8"?>
<svg id="Capa_1" data-name="Capa 1" xmlns="http://www.w3.org/2000/svg" viewBox="0 0 500 500">
  <defs>
    <style>
      .cls-1 {
        fill: #303ae2;
      }

      .cls-2 {
        fill: #052659;
      }
    </style>
  </defs>
  <path class="cls-2" d="M135.46,208.32c-28.71,0-52.09-25.19-52.09-56.13,0-34.25,34.94-75.59,67.25-92.42-7.88-5.63-16.17-13.21-22.04-22.96-4.56-7.52-4.71-16.94-.4-24.58,4.31-7.65,12.17-12.23,20.98-12.23h55.9c8.81,0,16.65,4.56,20.98,12.23,4.31,7.65,4.15,17.06-.4,24.61-5.85,9.75-14.17,17.33-22.04,22.96,32.29,16.83,67.25,58.15,67.25,92.42,0,30.96-23.38,56.13-52.09,56.13h-83.34l.02-.02ZM146.3,22.5c-.38.65-.88,2,.08,3.58,8.13,13.46,23.67,21.83,30.71,25.11,7.04-3.27,22.61-11.65,30.71-25.11.96-1.58.46-2.94.08-3.6-.42-.75-1.25-1.65-2.83-1.65h-55.9c-1.56,0-2.42.9-2.83,1.65l-.02.02ZM104.19,152.21c0,19.46,14.02,35.29,31.25,35.29h83.34c17.23,0,31.25-15.83,31.25-35.29,0-31.9-47.81-79.29-72.92-79.29-25.11,0-72.92,47.4-72.92,79.29Z"/>
  <path class="cls-1" d="M306.05,81.17c-4.06-4.06-4.06-10.67,0-14.73l57.29-57.29C369.29,3.21,375.04,0,385.45,0s16.17,3.21,22.11,9.15l57.34,57.34c4.06,4.06,4.06,10.67,0,14.73-2.04,2.04-4.71,3.04-7.38,3.04s-5.33-1.02-7.38-3.04l-54.27-54.27v129.32c0,5.75-4.67,10.42-10.42,10.42s-10.42-4.67-10.42-10.42V26.94l-54.25,54.25c-4.06,4.06-10.67,4.06-14.73,0v-.02Z"/>
  <path class="cls-2" d="M482.98,201.11c21.08,19.21,22.79,52.17,3.81,73.46l-141.8,159.17c-37.54,42.11-91.4,66.25-147.78,66.25h-124.28C32.73,500,.02,467.29.02,427.08v-104.17c0-40.21,32.71-72.92,72.92-72.92h205.36c25.17,0,46.44,16.98,52.98,40.06l77.75-85.46c9.4-10.33,22.27-16.38,36.23-17.04,13.92-.48,27.36,4.17,37.69,13.58l.02-.02ZM471.25,260.8c11.42-12.83,10.4-32.65-2.29-44.21-6.21-5.69-14.27-8.6-22.67-8.19-8.4.4-16.15,4.04-21.79,10.25l-93.67,102.92c-6.25,19.69-23.42,34.96-44.71,38l-128.59,15.38c-5.88.88-10.9-3.42-11.58-9.1-.69-5.73,3.4-10.92,9.1-11.58l128.36-15.35c16.52-2.35,29.13-16.92,29.13-33.83,0-18.88-15.38-34.23-34.23-34.23H72.94c-28.71,0-52.09,23.36-52.09,52.09v104.17c0,28.73,23.38,52.09,52.09,52.09h124.26c50.46,0,98.65-21.61,132.23-59.29l141.8-159.15.02.06Z"/>
</svg>