<?xml version="1.0" encoding="UTF-8"?>
<svg id="Capa_1" data-name="Capa 1" xmlns="http://www.w3.org/2000/svg" viewBox="0 0 500 500">
  <defs>
    <style>
      .cls-1 {
        fill: #303ae2;
      }

      .cls-2 {
        fill: #052659;
      }
    </style>
  </defs>
  <path class="cls-2" d="M500,135.42v166.67c0,40.21-32.71,72.92-72.92,72.92H135.42c-40.21,0-72.92-32.71-72.92-72.92v-166.67c0-40.21,32.71-72.92,72.92-72.92h291.67c40.21,0,72.92,32.71,72.92,72.92ZM479.17,135.42c0-28.75-23.33-52.08-52.08-52.08H135.42c-28.75,0-52.08,23.33-52.08,52.08v166.67c0,28.75,23.33,52.08,52.08,52.08h291.67c28.75,0,52.08-23.33,52.08-52.08v-166.67Z"/>
  <path class="cls-1" d="M354.17,218.75c0,40.21-32.71,72.92-72.92,72.92s-72.92-32.71-72.92-72.92,32.71-72.92,72.92-72.92,72.92,32.71,72.92,72.92ZM333.33,218.75c0-28.75-23.33-52.08-52.08-52.08s-52.08,23.33-52.08,52.08,23.33,52.08,52.08,52.08,52.08-23.33,52.08-52.08Z"/>
  <path class="cls-2" d="M395.83,427.08c0,5.83-4.58,10.42-10.42,10.42H93.75c-51.67,0-93.75-42.08-93.75-93.75v-166.67c0-5.83,4.58-10.42,10.42-10.42s10.42,4.58,10.42,10.42v166.67c0,40.21,32.71,72.92,72.92,72.92h291.67c5.83,0,10.42,4.58,10.42,10.42Z"/>
</svg>