<?xml version="1.0" encoding="UTF-8"?>
<svg id="Capa_1" data-name="Capa 1" xmlns="http://www.w3.org/2000/svg" viewBox="0 0 500 500">
  <defs>
    <style>
      .cls-1 {
        fill: #303ae2;
      }

      .cls-2 {
        fill: #052659;
      }
    </style>
  </defs>
  <path class="cls-2" d="M62.5,354.17v-83.33c0-22.98,18.69-41.67,41.67-41.67h135.42v-83.33h-31.25c-17.23,0-31.25-14.02-31.25-31.25v-62.5c0-17.23,14.02-31.25,31.25-31.25h83.33c17.23,0,31.25,14.02,31.25,31.25v62.5c0,17.23-14.02,31.25-31.25,31.25h-31.25v83.33h135.42c22.98,0,41.67,18.69,41.67,41.67v83.33M416.67,354.17v-80.73c0-12.94-9.33-23.44-20.83-23.44h-135.42v104.17h156.25ZM239.58,354.17v-104.17H104.17c-11.48,0-20.83,11.03-20.83,24.61v79.56h156.25ZM208.33,125h83.33c5.73,0,10.42-4.69,10.42-10.42v-62.5c0-5.73-4.69-10.42-10.42-10.42h-83.33c-5.75,0-10.42,4.69-10.42,10.42v62.5c0,5.73,4.67,10.42,10.42,10.42Z"/>
  <path class="cls-1" d="M83.33,354.17h31.25c17.23,0,31.25,14.02,31.25,31.25v62.5c0,17.23-14.02,31.25-31.25,31.25H31.25c-17.23,0-31.25-14.02-31.25-31.25v-62.5c0-17.23,14.02-31.25,31.25-31.25h31.25M114.58,375H31.25c-5.75,0-10.42,4.69-10.42,10.42v62.5c0,5.73,4.67,10.42,10.42,10.42h83.33c5.75,0,10.42-4.69,10.42-10.42v-62.5c0-5.73-4.67-10.42-10.42-10.42Z"/>
  <path class="cls-1" d="M260.42,354.17h31.25c17.23,0,31.25,14.02,31.25,31.25v62.5c0,17.23-14.02,31.25-31.25,31.25h-83.33c-17.23,0-31.25-14.02-31.25-31.25v-62.5c0-17.23,14.02-31.25,31.25-31.25h31.25M291.67,375h-83.33c-5.75,0-10.42,4.69-10.42,10.42v62.5c0,5.73,4.67,10.42,10.42,10.42h83.33c5.73,0,10.42-4.69,10.42-10.42v-62.5c0-5.73-4.69-10.42-10.42-10.42Z"/>
  <path class="cls-1" d="M437.5,354.17h31.25c17.23,0,31.25,14.02,31.25,31.25v62.5c0,17.23-14.02,31.25-31.25,31.25h-83.33c-17.23,0-31.25-14.02-31.25-31.25v-62.5c0-17.23,14.02-31.25,31.25-31.25h31.25M479.17,385.42c0-5.73-4.69-10.42-10.42-10.42h-83.33c-5.73,0-10.42,4.69-10.42,10.42v62.5c0,5.73,4.69,10.42,10.42,10.42h83.33c5.73,0,10.42-4.69,10.42-10.42v-62.5Z"/>
  <path class="cls-1" d="M260.42,20.83h31.25c17.23,0,31.25,14.02,31.25,31.25v62.5c0,17.23-14.02,31.25-31.25,31.25h-83.33c-17.23,0-31.25-14.02-31.25-31.25v-62.5c0-17.23,14.02-31.25,31.25-31.25h31.25M302.08,52.08c0-5.73-4.69-10.42-10.42-10.42h-83.33c-5.73,0-10.42,4.69-10.42,10.42v62.5c0,5.73,4.69,10.42,10.42,10.42h83.33c5.73,0,10.42-4.69,10.42-10.42v-62.5Z"/>
</svg>