<?xml version="1.0" encoding="UTF-8"?>
<svg id="Capa_1" data-name="Capa 1" xmlns="http://www.w3.org/2000/svg" viewBox="0 0 500 500">
  <defs>
    <style>
      .cls-1 {
        fill: #303ae2;
      }

      .cls-2 {
        fill: #052659;
      }
    </style>
  </defs>
  <path class="cls-2" d="M500,250c0,137.85-112.15,250-250,250S0,387.85,0,250,112.15,0,250,0s250,112.15,250,250ZM479.17,250c0-126.35-102.81-229.17-229.17-229.17S20.83,123.65,20.83,250s102.81,229.17,229.17,229.17,229.17-102.81,229.17-229.17Z"/>
  <path class="cls-1" d="M365.04,225.96c13.25,13.25,13.25,34.81,0,48.08l-100.06,100.06-14.73-14.73,98.96-98.96H125v-20.83h224.21l-98.96-98.96,14.73-14.73,100.06,100.06h0Z"/>
</svg>