<?xml version="1.0" encoding="UTF-8"?>
<svg id="Capa_1" data-name="Capa 1" xmlns="http://www.w3.org/2000/svg" viewBox="0 0 500 500">
  <defs>
    <style>
      .cls-1 {
        fill: #303ae2;
      }

      .cls-2 {
        fill: #052659;
      }
    </style>
  </defs>
  <path class="cls-1" d="M500,208.08h-208.11V-.01l10.97.56c106.5,5.59,191.02,90.09,196.58,196.61l.56,10.92ZM312.73,187.28h164.98c-9.59-86.98-78.02-155.41-164.98-165v165Z"/>
  <path class="cls-2" d="M457.68,249.82s1,18.35,1,20.85c0,126.45-102.89,229.34-229.34,229.34S0,397.12,0,270.67,102.89,41.33,229.34,41.33c2.5,0,20.85,1,20.85,1v207.45h207.49v.04ZM229.34,479.16c114.96,0,208.49-93.53,208.49-208.49h-208.49V62.18c-114.96,0-208.49,93.49-208.49,208.45s93.53,208.49,208.49,208.49v.04Z"/>
</svg>