<?xml version="1.0" encoding="UTF-8"?>
<svg id="Capa_1" data-name="Capa 1" xmlns="http://www.w3.org/2000/svg" viewBox="0 0 500 500">
  <defs>
    <style>
      .cls-1 {
        fill: #303ae2;
      }

      .cls-2 {
        fill: #052659;
      }
    </style>
  </defs>
  <path class="cls-2" d="M500,302.08c0,80.4-65.42,145.83-145.83,145.83H98.96c-54.56,0-98.96-44.4-98.96-98.96,0-33.9,17.23-65.1,45.44-83.25-2.5-11.96-3.77-24.23-3.77-36.54,0-97.65,79.44-177.08,177.08-177.08,71.29,0,134.44,41.67,162.54,106.69,68.08,12.83,118.71,73.42,118.71,143.31ZM354.13,427.08c68.94,0,125-56.06,125-125,0-61.65-45.9-114.81-106.79-123.69l-5.98-.87-2.21-5.63c-23.69-60.15-80.77-99-145.42-99-86.17,0-156.25,70.08-156.25,156.25,0,13.23,1.65,26.35,4.92,39.04l2.04,7.92-7.21,3.87c-25.54,13.65-41.4,40.08-41.4,68.98,0,43.06,35.04,78.12,78.13,78.12h255.21-.04Z"/>
  <path class="cls-1" d="M315.54,272.1l14.73,14.73-68.6,68.6c-6.08,6.08-14.08,9.12-22.1,9.12s-16-3.04-22.1-9.12l-68.6-68.6,14.73-14.73,65.54,65.54v-160.56h20.83v160.56l65.54-65.54h.04Z"/>
</svg>