<?xml version="1.0" encoding="UTF-8"?>
<svg id="Capa_1" data-name="Capa 1" xmlns="http://www.w3.org/2000/svg" viewBox="0 0 500 500">
  <defs>
    <style>
      .cls-1 {
        fill: #303ae2;
      }

      .cls-2 {
        fill: #052659;
      }
    </style>
  </defs>
  <rect class="cls-2" x="-93.13" y="239.59" width="686.27" height="20.82" transform="translate(-103.55 250) rotate(-45)"/>
  <path class="cls-1" d="M104.21,187.51c-45.94,0-83.31-37.36-83.31-83.31S58.26,20.89,104.21,20.89s83.31,37.36,83.31,83.31-37.36,83.31-83.31,83.31ZM104.21,41.72c-34.45,0-62.48,28.03-62.48,62.48s28.03,62.48,62.48,62.48,62.48-28.03,62.48-62.48-28.03-62.48-62.48-62.48Z"/>
  <path class="cls-1" d="M395.79,479.09c-45.94,0-83.31-37.36-83.31-83.31s37.36-83.31,83.31-83.31,83.31,37.36,83.31,83.31-37.36,83.31-83.31,83.31ZM395.79,333.3c-34.45,0-62.48,28.03-62.48,62.48s28.03,62.48,62.48,62.48,62.48-28.03,62.48-62.48-28.03-62.48-62.48-62.48Z"/>
</svg>